<svg width="200" height="200" viewBox="0 0 200 200" fill="none" xmlns="http://www.w3.org/2000/svg">
<path d="M99.9994 170.935C137.758 170.935 168.368 158.927 168.368 144.115C168.368 129.302 137.758 117.294 99.9994 117.294C62.2405 117.294 31.6309 129.302 31.6309 144.115C31.6309 158.927 62.2405 170.935 99.9994 170.935Z" fill="#FAE6C3"/>
<path d="M72.6038 63.8759L69.9075 80.7833H61.1445L63.8408 63.8759H72.6038Z" fill="#FAE6C3"/>
<path d="M116.18 81.3481C116.764 81.3481 117.164 81.8037 117.073 82.3667C116.984 82.9296 116.44 83.387 115.855 83.387H81.6045C81.0212 83.387 80.6193 82.9296 80.7101 82.3667C80.7989 81.8037 81.3452 81.3481 81.9286 81.3481H116.18Z" fill="#FFA500"/>
<path d="M119.025 69.2722H138.979L135.986 88.037L134.801 95.4704H82.2901C80.3772 95.4704 78.9012 94.2333 78.6901 92.45L78.5272 91.0556C78.3161 89.2741 76.8401 88.0352 74.9272 88.0352H59.9883L60.8198 82.8167H71.6957L75.042 61.8352H64.1661L66.1031 49.6852H121.801L122.094 50.0185L119.025 69.2722ZM116.944 76.5556C117.527 76.5556 118.072 76.1 118.161 75.537C118.249 74.9741 117.851 74.5167 117.268 74.5167H83.0161C82.4327 74.5167 81.8864 74.9741 81.7957 75.537C81.7068 76.1 82.1068 76.5556 82.6901 76.5556H116.944ZM115.855 83.3852C116.438 83.3852 116.983 82.9278 117.073 82.3648C117.162 81.8018 116.764 81.3463 116.181 81.3463H81.9272C81.3438 81.3463 80.7975 81.8018 80.7086 82.3648C80.6198 82.9278 81.0198 83.3852 81.6031 83.3852H115.855ZM114.766 90.2111C115.349 90.2111 115.894 89.7556 115.983 89.1926C116.072 88.6296 115.673 88.1722 115.09 88.1722H80.8383C80.2549 88.1722 79.7087 88.6296 79.6179 89.1926C79.529 89.7556 79.929 90.2111 80.5124 90.2111H114.766Z" fill="#FAE6C3"/>
<path d="M115.091 88.1741C115.674 88.1741 116.072 88.6315 115.983 89.1944C115.894 89.7574 115.35 90.213 114.767 90.213H80.5147C79.9313 90.213 79.5295 89.7574 79.6202 89.1944C79.7091 88.6315 80.2554 88.1741 80.8406 88.1741H115.091Z" fill="#FFA500"/>
<path d="M115.091 88.1741C115.674 88.1741 116.072 88.6315 115.983 89.1944C115.894 89.7574 115.35 90.213 114.767 90.213H80.5147C79.9313 90.213 79.5295 89.7574 79.6202 89.1944C79.7091 88.6315 80.2554 88.1741 80.8406 88.1741H115.091Z" fill="#FFA500"/>
<path d="M152.701 96.0815C152.699 96.0241 152.693 95.9667 152.688 95.9093C152.684 95.8759 152.682 95.8408 152.678 95.8074C152.671 95.7445 152.66 95.6815 152.649 95.6185C152.645 95.5963 152.643 95.5741 152.638 95.5519C152.638 95.5482 152.636 95.5445 152.634 95.5389C152.621 95.4722 152.604 95.4056 152.588 95.3408C152.584 95.3241 152.58 95.3056 152.575 95.2889C152.553 95.2074 152.527 95.1259 152.497 95.0463C152.497 95.0445 152.495 95.0426 152.495 95.0407C152.493 95.037 152.491 95.0333 152.49 95.0278C152.445 94.9074 152.395 94.7926 152.338 94.6796C152.332 94.6704 152.33 94.6593 152.325 94.65C152.323 94.6445 152.319 94.6408 152.315 94.6352C152.264 94.537 152.208 94.4408 152.147 94.3482C152.141 94.3389 152.136 94.3296 152.13 94.3204C152.103 94.2796 152.075 94.2389 152.047 94.2L148.564 89.45C148.599 89.4982 148.632 89.5482 148.664 89.5982C148.725 89.6908 148.78 89.7871 148.832 89.8852C148.84 89.9 148.847 89.9148 148.854 89.9296C148.91 90.0426 148.962 90.1593 149.006 90.2778C149.008 90.2833 149.012 90.2889 149.014 90.2963C149.041 90.3759 149.067 90.4574 149.091 90.5389C149.097 90.5556 149.099 90.5741 149.104 90.5908C149.121 90.6556 149.138 90.7222 149.151 90.7889C149.156 90.8148 149.16 90.8408 149.164 90.8667C149.175 90.9296 149.184 90.9908 149.193 91.0556C149.197 91.0889 149.199 91.1241 149.203 91.1574C149.208 91.2148 149.212 91.2722 149.215 91.3296C149.217 91.3667 149.217 91.4037 149.217 91.4408C149.217 91.4963 149.217 91.5537 149.215 91.6093C149.214 91.6463 149.214 91.6852 149.21 91.7241C149.206 91.7815 149.201 91.8389 149.195 91.8982C149.191 91.9352 149.188 91.9722 149.182 92.0111C149.173 92.0741 149.164 92.1352 149.151 92.1982C149.145 92.2315 149.14 92.2648 149.132 92.2982C149.115 92.3796 149.095 92.4611 149.073 92.5426C149.069 92.5574 149.065 92.5722 149.062 92.5889C149.034 92.6852 149.003 92.7833 148.967 92.8796C148.956 92.9093 148.943 92.9389 148.932 92.9685C148.906 93.037 148.878 93.1056 148.849 93.1722C148.814 93.25 148.778 93.3278 148.74 93.4074L123.749 142.711L123.623 142.541C123.578 142.643 123.53 142.741 123.478 142.839C123.475 142.846 123.471 142.852 123.469 142.859C123.419 142.954 123.365 143.044 123.31 143.135C123.234 143.257 123.154 143.374 123.069 143.489C123.045 143.522 123.019 143.552 122.995 143.583C122.938 143.656 122.88 143.728 122.819 143.798C122.788 143.835 122.754 143.87 122.721 143.906C122.665 143.965 122.608 144.024 122.549 144.081C122.514 144.115 122.48 144.15 122.445 144.181C122.382 144.239 122.317 144.294 122.253 144.35C122.219 144.378 122.188 144.406 122.154 144.433C122.054 144.515 121.951 144.593 121.843 144.665C121.732 144.741 121.617 144.811 121.501 144.88C121.469 144.898 121.436 144.915 121.403 144.933C121.303 144.989 121.201 145.041 121.097 145.089C121.056 145.109 121.014 145.128 120.973 145.146C120.934 145.163 120.895 145.18 120.856 145.194C120.793 145.22 120.73 145.244 120.667 145.267C120.627 145.281 120.588 145.294 120.547 145.309C120.484 145.33 120.421 145.35 120.358 145.367C120.314 145.38 120.271 145.393 120.227 145.404C120.162 145.42 120.095 145.435 120.028 145.45C119.986 145.459 119.943 145.469 119.903 145.478C119.83 145.491 119.756 145.502 119.682 145.511C119.647 145.517 119.61 145.522 119.575 145.526C119.465 145.539 119.354 145.548 119.245 145.552L122.728 150.302C122.734 150.302 122.74 150.3 122.745 150.3L122.747 150.302C122.758 150.302 122.769 150.302 122.782 150.302C122.834 150.302 122.884 150.3 122.936 150.298C122.958 150.296 122.98 150.293 123.003 150.293C123.114 150.287 123.225 150.276 123.334 150.261C123.367 150.257 123.399 150.254 123.432 150.25C123.573 150.23 123.712 150.202 123.851 150.167C123.884 150.159 123.915 150.148 123.947 150.141C124.019 150.12 124.093 150.104 124.165 150.08C124.204 150.067 124.243 150.052 124.282 150.039C124.312 150.03 124.34 150.019 124.369 150.009C124.49 149.965 124.608 149.919 124.725 149.867C124.732 149.863 124.74 149.857 124.749 149.856C124.756 149.852 124.765 149.85 124.775 149.844C124.775 149.844 124.775 149.843 124.773 149.843C124.773 149.843 124.773 149.844 124.775 149.844C124.904 149.785 125.03 149.719 125.154 149.648C125.158 149.646 125.16 149.644 125.164 149.643C125.201 149.622 125.234 149.598 125.269 149.576C125.353 149.526 125.436 149.476 125.517 149.42C125.525 149.417 125.53 149.413 125.538 149.407C125.588 149.374 125.634 149.335 125.682 149.298C125.74 149.256 125.797 149.217 125.851 149.172C125.858 149.167 125.864 149.163 125.871 149.157C125.923 149.117 125.969 149.07 126.019 149.028C126.062 148.991 126.106 148.956 126.147 148.917C126.156 148.907 126.165 148.9 126.175 148.891C126.177 148.889 126.177 148.889 126.178 148.887C126.18 148.885 126.18 148.885 126.182 148.883C126.193 148.874 126.204 148.863 126.214 148.854C126.238 148.831 126.256 148.806 126.28 148.783C126.343 148.72 126.408 148.657 126.467 148.591C126.484 148.572 126.499 148.552 126.515 148.533C126.528 148.519 126.545 148.504 126.558 148.489C126.571 148.474 126.584 148.457 126.597 148.443C126.64 148.391 126.68 148.339 126.721 148.285C126.728 148.276 126.738 148.267 126.745 148.256C126.747 148.252 126.749 148.248 126.753 148.244C126.838 148.131 126.917 148.013 126.993 147.893C127.001 147.88 127.01 147.869 127.017 147.857C127.025 147.846 127.03 147.833 127.038 147.822C127.097 147.724 127.153 147.626 127.204 147.522L152.232 98.1519C152.265 98.0852 152.299 98.0167 152.328 97.95C152.334 97.9389 152.338 97.9278 152.341 97.9185C152.371 97.85 152.399 97.7815 152.425 97.7148C152.436 97.6852 152.449 97.6556 152.46 97.6259C152.495 97.5296 152.527 97.4315 152.554 97.3352C152.558 97.3204 152.562 97.3056 152.565 97.2889C152.588 97.2074 152.608 97.1259 152.625 97.0445C152.632 97.0111 152.638 96.9778 152.643 96.9445C152.654 96.8815 152.665 96.8185 152.675 96.7574C152.68 96.7204 152.684 96.6833 152.688 96.6445C152.693 96.587 152.699 96.5278 152.703 96.4704C152.704 96.4315 152.706 96.3945 152.708 96.3556C152.71 96.2982 152.71 96.2426 152.71 96.187C152.703 96.1556 152.703 96.1185 152.701 96.0815Z" fill="#F9D08B"/>
<path d="M122.521 150.733L118.443 145.172L119.225 145.141C119.325 145.137 119.425 145.128 119.525 145.117C119.542 145.115 119.556 145.113 119.573 145.109L119.623 145.102C119.69 145.093 119.756 145.083 119.823 145.07C119.849 145.065 119.873 145.059 119.897 145.056L119.938 145.046C119.997 145.033 120.058 145.02 120.117 145.006C120.151 144.996 120.184 144.987 120.216 144.978L120.238 144.97C120.295 144.954 120.354 144.937 120.412 144.917C120.449 144.904 120.486 144.891 120.523 144.878C120.58 144.857 120.64 144.835 120.697 144.811C120.738 144.794 120.771 144.781 120.804 144.767C120.83 144.756 120.856 144.743 120.882 144.73L120.919 144.713C121.016 144.669 121.108 144.62 121.201 144.569L121.291 144.519C121.412 144.448 121.514 144.385 121.606 144.32C121.697 144.257 121.792 144.189 121.892 144.107C121.91 144.093 121.927 144.078 121.943 144.063L121.982 144.03C122.042 143.98 122.103 143.928 122.16 143.874C122.188 143.848 122.216 143.82 122.243 143.793C122.31 143.728 122.362 143.674 122.414 143.619C122.443 143.587 122.473 143.554 122.503 143.52C122.56 143.456 122.614 143.391 122.666 143.322L122.695 143.285C122.708 143.269 122.721 143.252 122.734 143.235C122.816 143.128 122.89 143.019 122.954 142.911C123.006 142.828 123.054 142.744 123.101 142.659L123.108 142.643C123.156 142.552 123.201 142.461 123.24 142.369L123.529 141.706L123.68 141.913L148.371 93.2185C148.408 93.1463 148.44 93.0759 148.471 93.0037C148.499 92.9408 148.523 92.8796 148.547 92.8167L148.579 92.7389C148.61 92.65 148.64 92.5611 148.666 92.4741L148.677 92.4315C148.697 92.3593 148.716 92.2852 148.73 92.213C148.734 92.1963 148.736 92.1796 148.74 92.163L148.747 92.1222C148.758 92.0648 148.767 92.0093 148.775 91.9537C148.779 91.9278 148.78 91.9019 148.784 91.8741L148.786 91.8537C148.792 91.8019 148.797 91.75 148.799 91.6982C148.801 91.6648 148.803 91.6315 148.803 91.5963C148.804 91.5445 148.804 91.4945 148.804 91.4445C148.804 91.413 148.804 91.3796 148.803 91.3463C148.801 91.2945 148.797 91.2445 148.791 91.1945L148.788 91.1593C148.786 91.1408 148.784 91.1222 148.782 91.1037C148.775 91.0482 148.766 90.9926 148.756 90.9371L148.745 90.8667C148.734 90.8074 148.719 90.75 148.704 90.6926L148.695 90.6574C148.673 90.5759 148.651 90.5037 148.625 90.4352L148.619 90.4222C148.582 90.3185 148.538 90.2185 148.486 90.113L148.473 90.0852C148.425 89.9926 148.375 89.9074 148.319 89.8222C148.292 89.7796 148.264 89.737 148.234 89.6963L148.23 89.6926L148.903 89.2L152.386 93.95C152.419 93.9945 152.451 94.0389 152.48 94.0852L152.506 94.1278C152.567 94.2222 152.629 94.3222 152.682 94.4259L152.697 94.4537C152.704 94.4685 152.712 94.4833 152.717 94.5C152.78 94.6259 152.832 94.7463 152.877 94.8648L152.895 94.9111C152.927 95.0019 152.954 95.087 152.979 95.1722C152.982 95.187 152.986 95.2037 152.99 95.2204C153.012 95.3037 153.029 95.3778 153.043 95.4519L153.047 95.4722C153.051 95.487 153.053 95.5056 153.056 95.5259C153.071 95.6111 153.082 95.6796 153.092 95.7519C153.095 95.7815 153.097 95.8111 153.101 95.8408L153.103 95.8648C153.108 95.9278 153.114 95.9908 153.116 96.0556C153.117 96.0963 153.117 96.137 153.119 96.1778C153.121 96.2408 153.119 96.3037 153.117 96.3667C153.116 96.4074 153.114 96.45 153.112 96.4926C153.108 96.5556 153.103 96.6204 153.095 96.6852L153.093 96.7037C153.09 96.7389 153.086 96.7741 153.08 96.8093C153.071 96.8778 153.06 96.9463 153.047 97.0148L153.042 97.0463C153.038 97.0722 153.032 97.1 153.027 97.1259C153.008 97.2148 152.986 97.3056 152.962 97.3945C152.956 97.4167 152.953 97.4315 152.949 97.4463C152.919 97.5519 152.884 97.6574 152.845 97.763C152.836 97.7852 152.829 97.8093 152.819 97.8315L152.808 97.8611C152.78 97.9352 152.751 98.0093 152.717 98.0834C152.714 98.0945 152.708 98.1056 152.703 98.1185C152.669 98.1926 152.634 98.2648 152.597 98.3389L127.571 147.715C127.519 147.815 127.46 147.922 127.39 148.041C127.384 148.052 127.377 148.065 127.369 148.078C127.36 148.094 127.349 148.107 127.34 148.122C127.256 148.256 127.175 148.376 127.09 148.491L127.08 148.504L127.086 148.511L126.871 148.765L126.543 149.15L126.529 149.131C126.519 149.141 126.51 149.15 126.501 149.159L126.429 149.228C126.397 149.257 126.366 149.283 126.334 149.311L126.243 149.391C126.206 149.424 126.169 149.457 126.13 149.489L126.101 149.511C126.064 149.541 126.017 149.574 125.971 149.607L125.877 149.678C125.841 149.706 125.804 149.733 125.767 149.759L125.736 149.78C125.662 149.831 125.573 149.883 125.486 149.937L125.445 149.963C125.427 149.976 125.406 149.987 125.386 150L125.399 150.017L124.967 150.219C124.96 150.222 124.953 150.226 124.945 150.23L124.642 150.37L124.634 150.361C124.593 150.376 124.551 150.393 124.506 150.409L124.375 150.456C124.345 150.467 124.317 150.476 124.288 150.485C124.225 150.506 124.16 150.522 124.097 150.539L124.019 150.556C123.995 150.563 123.971 150.569 123.947 150.576C123.797 150.613 123.643 150.643 123.491 150.667C123.466 150.67 123.442 150.674 123.416 150.676L123.384 150.68C123.262 150.696 123.14 150.707 123.023 150.713C122.995 150.717 122.973 150.719 122.951 150.72C122.893 150.722 122.838 150.724 122.782 150.724H122.743H122.736L122.521 150.733ZM120.001 145.885L122.934 149.883C122.949 149.881 122.962 149.88 122.977 149.88C123.077 149.874 123.179 149.865 123.279 149.852L123.367 149.841C123.495 149.822 123.623 149.796 123.749 149.765L123.888 149.728C123.938 149.715 123.99 149.702 124.038 149.685C124.056 149.68 124.075 149.672 124.093 149.667L124.223 149.62C124.351 149.574 124.454 149.531 124.549 149.489C124.545 149.489 124.558 149.483 124.569 149.478L124.601 149.465C124.712 149.413 124.827 149.354 124.942 149.289L124.958 149.28C124.969 149.274 124.979 149.267 124.99 149.259C125.008 149.246 125.029 149.235 125.047 149.222C125.129 149.174 125.203 149.128 125.275 149.08L125.304 149.061C125.317 149.052 125.343 149.031 125.367 149.013L125.479 148.931C125.514 148.906 125.549 148.88 125.584 148.852L125.612 148.831C125.63 148.817 125.656 148.793 125.684 148.769L125.797 148.67C125.817 148.654 125.84 148.635 125.858 148.617L125.936 148.541C125.951 148.524 125.966 148.509 125.98 148.493L126.017 148.456C126.064 148.409 126.11 148.365 126.153 148.317C126.173 148.291 126.184 148.278 126.195 148.265C126.208 148.25 126.219 148.237 126.232 148.226L126.549 148.491L126.236 148.224L126.271 148.183C126.308 148.139 126.343 148.093 126.377 148.048C126.39 148.031 126.397 148.022 126.404 148.013L126.416 147.998C126.486 147.906 126.556 147.8 126.632 147.68C126.64 147.667 126.649 147.654 126.658 147.641C126.658 147.639 126.666 147.626 126.673 147.615C126.727 147.526 126.779 147.435 126.825 147.343L151.853 97.9741C151.884 97.913 151.914 97.85 151.942 97.7889C151.943 97.7815 151.949 97.7704 151.954 97.7574C151.98 97.6982 152.006 97.6352 152.029 97.5741L152.06 97.4945C152.092 97.4074 152.121 97.3185 152.145 97.2315L152.156 97.1908C152.177 97.1167 152.195 97.0445 152.21 96.9704L152.227 96.8796C152.236 96.8241 152.247 96.7667 152.254 96.7111C152.258 96.6852 152.26 96.6593 152.264 96.6315L152.266 96.6111C152.271 96.5593 152.277 96.5074 152.279 96.4556C152.28 96.4222 152.282 96.3889 152.282 96.3537C152.284 96.3019 152.284 96.2519 152.284 96.2019C152.284 96.1685 152.284 96.1371 152.282 96.1037C152.28 96.0519 152.277 96.0019 152.271 95.9519L152.269 95.9222C152.267 95.9019 152.266 95.8815 152.264 95.8611C152.256 95.8056 152.247 95.75 152.238 95.6945L152.229 95.6371C152.227 95.6315 152.227 95.6241 152.225 95.6185C152.214 95.5667 152.201 95.5074 152.184 95.45L152.175 95.413C152.154 95.3352 152.132 95.2648 152.106 95.1963C152.104 95.1908 152.101 95.1833 152.099 95.1759C152.062 95.0759 152.019 94.9759 151.966 94.8685L151.947 94.8296C151.904 94.7463 151.856 94.6648 151.799 94.5778L151.775 94.5389C151.76 94.5185 151.736 94.4833 151.71 94.4482L149.63 91.6111C149.63 91.6148 149.63 91.6204 149.63 91.6241C149.629 91.6648 149.627 91.7074 149.625 91.75C149.621 91.8148 149.616 91.8778 149.608 91.9426L149.606 91.9611C149.603 91.9963 149.599 92.0315 149.595 92.0648C149.586 92.1333 149.573 92.2037 149.562 92.2722L149.556 92.3037C149.553 92.3296 149.547 92.3574 149.542 92.3833C149.523 92.4722 149.501 92.563 149.477 92.6519L149.464 92.7C149.432 92.8074 149.399 92.9148 149.36 93.0204C149.353 93.0426 149.343 93.0648 149.334 93.0871L149.323 93.1148C149.293 93.1889 149.266 93.263 149.232 93.337C149.195 93.4222 149.156 93.5074 149.112 93.5926L123.81 143.5L123.679 143.32C123.673 143.33 123.667 143.339 123.66 143.35C123.58 143.478 123.493 143.607 123.399 143.735C123.38 143.759 123.362 143.783 123.341 143.807L123.317 143.837C123.254 143.917 123.192 143.994 123.127 144.069C123.093 144.107 123.058 144.146 123.021 144.185C122.96 144.25 122.899 144.313 122.836 144.376C122.792 144.42 122.758 144.454 122.723 144.485C122.656 144.548 122.586 144.607 122.516 144.667L122.484 144.693C122.46 144.713 122.434 144.735 122.41 144.756C122.293 144.85 122.182 144.931 122.075 145.006C121.966 145.081 121.845 145.157 121.706 145.237C121.682 145.252 121.656 145.265 121.632 145.278L121.601 145.294C121.493 145.354 121.382 145.411 121.269 145.463L121.236 145.478C121.203 145.494 121.167 145.509 121.134 145.526C121.095 145.543 121.056 145.559 121.017 145.576C120.942 145.607 120.873 145.633 120.803 145.659C120.76 145.674 120.716 145.691 120.673 145.704C120.604 145.726 120.536 145.746 120.467 145.767L120.445 145.772C120.404 145.783 120.364 145.796 120.323 145.806C120.253 145.824 120.18 145.839 120.108 145.856L120.073 145.863C120.053 145.876 120.027 145.882 120.001 145.885ZM152.899 94.9241V94.9259C152.899 94.9241 152.899 94.9241 152.899 94.9241ZM152.89 94.9C152.891 94.9056 152.893 94.9093 152.895 94.9148C152.893 94.9093 152.891 94.9037 152.89 94.9Z" fill="#FAE6C3"/>
<path d="M145.592 88.0389C148.479 88.0389 150.081 90.7685 148.742 93.4074L123.714 142.778C122.872 144.439 121.077 145.559 119.259 145.557C121.09 145.481 122.868 144.265 123.622 142.541L141.962 100.602C143.094 98.0148 141.477 95.4722 138.698 95.4722H134.798L135.983 88.0389H145.592Z" fill="#FAE6C3"/>
<path d="M119.262 145.974C119.261 145.974 119.259 145.974 119.257 145.974L119.24 145.141C120.912 145.072 122.557 143.935 123.238 142.374L141.579 100.435C142.068 99.3167 142.012 98.1593 141.424 97.2611C140.853 96.3908 139.861 95.8907 138.696 95.8907H134.309L135.627 87.6241H145.59C147.087 87.6241 148.355 88.2926 149.072 89.4611C149.805 90.6556 149.82 92.2037 149.112 93.5982L124.085 142.965C123.172 144.765 121.235 145.974 119.262 145.974ZM135.288 95.0556H138.699C140.149 95.0556 141.398 95.6926 142.124 96.8037C142.868 97.9426 142.949 99.387 142.344 100.769L128.538 132.337L148.37 93.2185C148.955 92.0667 148.951 90.8537 148.362 89.8945C147.801 88.9796 146.792 88.4556 145.592 88.4556H136.34L135.288 95.0556Z" fill="#FAE6C3"/>
<path d="M145.805 103.487C145.801 103.424 145.797 103.361 145.79 103.298C145.786 103.267 145.782 103.235 145.779 103.204C145.771 103.148 145.764 103.093 145.753 103.037C145.749 103.02 145.749 103.004 145.745 102.987C145.742 102.97 145.738 102.956 145.734 102.939C145.723 102.889 145.712 102.837 145.699 102.787C145.692 102.756 145.682 102.724 145.675 102.693C145.66 102.641 145.644 102.589 145.625 102.537C145.618 102.517 145.612 102.494 145.605 102.474C145.603 102.47 145.601 102.467 145.599 102.461C145.555 102.341 145.505 102.226 145.447 102.113C145.442 102.104 145.44 102.093 145.434 102.083C145.431 102.076 145.425 102.07 145.421 102.063C145.369 101.965 145.314 101.87 145.255 101.78C145.249 101.772 145.245 101.765 145.242 101.757C145.214 101.717 145.186 101.678 145.158 101.639L141.675 96.8889C141.708 96.9352 141.74 96.9834 141.771 97.0315C141.831 97.1241 141.888 97.2186 141.938 97.3149C141.947 97.3315 141.955 97.3482 141.964 97.3649C142.021 97.4778 142.071 97.5945 142.116 97.713C142.125 97.7389 142.132 97.763 142.142 97.7889C142.158 97.8408 142.177 97.8927 142.192 97.9445C142.201 97.976 142.208 98.0075 142.216 98.0389C142.229 98.0889 142.24 98.1389 142.251 98.1908C142.258 98.2241 142.264 98.2556 142.269 98.2889C142.279 98.3445 142.288 98.4001 142.295 98.4556C142.299 98.4871 142.305 98.5186 142.307 98.5501C142.312 98.613 142.318 98.676 142.319 98.7389C142.321 98.7649 142.323 98.7908 142.323 98.8167C142.325 98.9056 142.325 98.9964 142.321 99.0871C142.321 99.1019 142.319 99.1167 142.318 99.1334C142.314 99.2093 142.308 99.2852 142.299 99.363C142.295 99.3945 142.29 99.426 142.286 99.4575C142.277 99.5186 142.268 99.5815 142.257 99.6426C142.251 99.6778 142.244 99.713 142.236 99.7482C142.223 99.8075 142.208 99.8686 142.194 99.9297C142.184 99.9649 142.175 100 142.166 100.035C142.147 100.1 142.127 100.165 142.105 100.23C142.094 100.259 142.084 100.291 142.073 100.32C142.04 100.415 142.001 100.511 141.96 100.606L123.619 142.544C123.575 142.646 123.527 142.744 123.475 142.843C123.471 142.85 123.468 142.856 123.466 142.863C123.416 142.957 123.362 143.048 123.307 143.139C123.231 143.261 123.151 143.378 123.066 143.493C123.042 143.526 123.016 143.556 122.992 143.587C122.934 143.659 122.877 143.732 122.816 143.802C122.784 143.839 122.751 143.874 122.718 143.909C122.662 143.969 122.605 144.028 122.545 144.085C122.51 144.119 122.477 144.154 122.442 144.185C122.379 144.243 122.314 144.298 122.249 144.354C122.216 144.382 122.184 144.409 122.151 144.437C122.051 144.519 121.947 144.596 121.84 144.669C121.729 144.744 121.614 144.815 121.497 144.883C121.466 144.902 121.432 144.919 121.399 144.937C121.299 144.993 121.197 145.044 121.094 145.093C121.053 145.113 121.01 145.132 120.969 145.15C120.931 145.167 120.892 145.183 120.853 145.198C120.79 145.224 120.727 145.248 120.664 145.27C120.623 145.285 120.584 145.298 120.544 145.313C120.481 145.333 120.418 145.354 120.355 145.37C120.31 145.383 120.268 145.396 120.223 145.407C120.158 145.424 120.092 145.439 120.025 145.454C119.982 145.463 119.94 145.472 119.899 145.482C119.827 145.494 119.753 145.506 119.679 145.515C119.644 145.52 119.607 145.526 119.571 145.53C119.462 145.543 119.351 145.552 119.242 145.556L56.7621 145.559C55.5009 145.559 54.4306 145.02 53.7861 144.143L57.2695 148.893C57.9139 149.77 58.9843 150.309 60.2454 150.309L122.725 150.306C122.836 150.302 122.945 150.293 123.055 150.28C123.092 150.276 123.127 150.269 123.162 150.265C123.236 150.256 123.308 150.244 123.381 150.232C123.423 150.224 123.466 150.213 123.508 150.204C123.575 150.189 123.64 150.176 123.705 150.157C123.749 150.146 123.794 150.133 123.838 150.12C123.877 150.109 123.916 150.1 123.955 150.087C123.979 150.08 124.003 150.07 124.027 150.063C124.068 150.05 124.107 150.035 124.147 150.02C124.21 149.998 124.273 149.972 124.336 149.948C124.375 149.932 124.414 149.917 124.453 149.9C124.473 149.891 124.494 149.883 124.512 149.876C124.534 149.867 124.555 149.854 124.577 149.843C124.681 149.794 124.782 149.743 124.882 149.687C124.905 149.676 124.927 149.667 124.947 149.654C124.958 149.646 124.969 149.639 124.981 149.633C125.208 149.502 125.427 149.352 125.632 149.187C125.64 149.182 125.649 149.176 125.657 149.169C125.682 149.148 125.705 149.124 125.731 149.104C125.795 149.048 125.86 148.993 125.923 148.935C125.936 148.922 125.951 148.911 125.966 148.898C125.988 148.878 126.007 148.856 126.029 148.833C126.088 148.776 126.145 148.717 126.201 148.657C126.219 148.637 126.238 148.62 126.257 148.6C126.271 148.583 126.284 148.567 126.299 148.55C126.36 148.48 126.418 148.409 126.475 148.335C126.494 148.311 126.514 148.289 126.532 148.265C126.538 148.257 126.544 148.248 126.551 148.239C126.636 148.124 126.718 148.006 126.792 147.885C126.795 147.88 126.801 147.874 126.805 147.867C126.857 147.782 126.905 147.696 126.951 147.609C126.955 147.602 126.958 147.594 126.962 147.587C127.003 147.507 127.044 147.428 127.081 147.346C127.09 147.328 127.097 147.307 127.107 147.289L145.447 105.35C145.488 105.256 145.525 105.159 145.56 105.065C145.571 105.033 145.581 105.004 145.592 104.974C145.614 104.909 145.634 104.844 145.653 104.78C145.662 104.744 145.671 104.709 145.681 104.674C145.695 104.613 145.71 104.554 145.723 104.493C145.731 104.457 145.738 104.422 145.744 104.387C145.755 104.326 145.764 104.263 145.773 104.202C145.777 104.17 145.782 104.139 145.786 104.107C145.795 104.03 145.801 103.954 145.805 103.878C145.805 103.863 145.807 103.848 145.808 103.832C145.812 103.741 145.812 103.65 145.81 103.561C145.808 103.539 145.807 103.513 145.805 103.487Z" fill="#DE9201"/>
<path d="M60.2456 150.728C58.8808 150.728 57.6734 150.15 56.9345 149.141L53.4512 144.391L54.1234 143.898L54.1271 143.904C54.7086 144.693 55.6678 145.144 56.7623 145.144L119.242 145.141C119.325 145.137 119.425 145.128 119.525 145.117C119.542 145.115 119.557 145.113 119.573 145.109L119.623 145.102C119.69 145.093 119.757 145.083 119.823 145.07C119.849 145.065 119.873 145.059 119.897 145.056L119.938 145.046C119.997 145.033 120.059 145.02 120.118 145.006C120.151 144.996 120.185 144.987 120.216 144.978L120.238 144.97C120.296 144.954 120.355 144.937 120.412 144.917C120.449 144.904 120.486 144.891 120.523 144.878C120.581 144.857 120.64 144.835 120.697 144.811C120.738 144.794 120.772 144.782 120.805 144.767C120.831 144.756 120.857 144.743 120.883 144.73L120.92 144.713C121.016 144.669 121.109 144.62 121.201 144.569L121.292 144.519C121.412 144.448 121.514 144.385 121.607 144.32C121.697 144.257 121.792 144.189 121.892 144.107C121.91 144.093 121.927 144.078 121.944 144.063L121.983 144.03C122.042 143.98 122.103 143.928 122.16 143.874C122.188 143.848 122.216 143.82 122.244 143.793C122.31 143.728 122.362 143.674 122.414 143.619C122.444 143.587 122.473 143.554 122.503 143.52C122.56 143.456 122.614 143.391 122.666 143.322L122.696 143.285C122.709 143.269 122.722 143.252 122.735 143.235C122.816 143.128 122.89 143.019 122.955 142.911C123.007 142.828 123.055 142.744 123.101 142.659L123.109 142.643C123.157 142.552 123.201 142.461 123.24 142.369L141.581 100.43C141.618 100.343 141.653 100.257 141.683 100.17L141.71 100.087C141.731 100.03 141.749 99.9704 141.766 99.9111C141.775 99.8815 141.783 99.8519 141.79 99.8222C141.807 99.7611 141.82 99.7074 141.831 99.6537C141.838 99.6223 141.844 99.5908 141.849 99.5593C141.86 99.5037 141.868 99.4482 141.875 99.3926L141.886 99.3074C141.894 99.2389 141.899 99.1704 141.903 99.1019L141.905 99.0667C141.909 98.9797 141.909 98.9 141.907 98.8204L141.903 98.7519C141.899 98.6963 141.897 98.6408 141.89 98.5852C141.888 98.5648 141.885 98.5445 141.883 98.5241L141.879 98.5019C141.873 98.4519 141.866 98.4037 141.857 98.3556C141.851 98.326 141.846 98.2982 141.84 98.2686C141.831 98.2241 141.82 98.1797 141.809 98.1352L141.786 98.0519C141.773 98.0056 141.759 97.9611 141.742 97.9148L141.72 97.8482C141.683 97.7482 141.64 97.6482 141.586 97.5426L141.564 97.4982C141.52 97.413 141.472 97.3297 141.418 97.25C141.39 97.2074 141.364 97.1667 141.335 97.1278L141.333 97.1259L142.005 96.6334C142.005 96.6352 142.007 96.6352 142.007 96.6371L145.488 101.383C145.52 101.428 145.551 101.472 145.583 101.517L145.603 101.552C145.666 101.65 145.725 101.75 145.779 101.852C145.785 101.863 145.792 101.872 145.797 101.883L145.818 101.928C145.881 102.054 145.933 102.174 145.977 102.294L145.986 102.315C145.996 102.343 146.003 102.361 146.009 102.38C146.033 102.452 146.051 102.511 146.068 102.57C146.077 102.604 146.086 102.637 146.094 102.67C146.109 102.732 146.123 102.789 146.135 102.844C146.14 102.867 146.144 102.882 146.147 102.898C146.151 102.915 146.153 102.932 146.155 102.948C146.168 103.017 146.177 103.08 146.185 103.143C146.19 103.187 146.194 103.219 146.197 103.25C146.205 103.319 146.209 103.389 146.212 103.459L146.214 103.483C146.216 103.504 146.216 103.524 146.218 103.546C146.222 103.644 146.22 103.744 146.216 103.846L146.212 103.889C146.207 103.982 146.201 104.067 146.19 104.15C146.186 104.174 146.185 104.198 146.181 104.222L146.177 104.252C146.168 104.32 146.157 104.389 146.144 104.457C146.136 104.496 146.129 104.533 146.12 104.572C146.105 104.639 146.09 104.704 146.073 104.77C146.062 104.817 146.053 104.852 146.042 104.887C146.022 104.957 145.999 105.028 145.975 105.1L145.968 105.126C145.96 105.152 145.951 105.176 145.942 105.202C145.905 105.306 145.864 105.407 145.82 105.511L127.449 147.515C127.41 147.602 127.366 147.689 127.322 147.774L127.31 147.798C127.26 147.893 127.207 147.987 127.151 148.078L127.133 148.106C127.053 148.233 126.968 148.359 126.875 148.482C126.873 148.485 126.866 148.496 126.857 148.509C126.842 148.53 126.825 148.548 126.81 148.567L126.796 148.585C126.733 148.665 126.67 148.743 126.605 148.817C126.586 148.841 126.573 148.856 126.56 148.87C126.546 148.887 126.529 148.904 126.514 148.919L126.499 148.933C126.44 148.998 126.377 149.061 126.314 149.124L126.297 149.141C126.281 149.159 126.264 149.176 126.246 149.193C126.233 149.206 126.22 149.217 126.207 149.228C126.133 149.294 126.064 149.356 125.994 149.415L125.972 149.433C125.953 149.45 125.933 149.469 125.912 149.483L125.883 149.507C125.668 149.68 125.431 149.843 125.185 149.985C125.175 149.993 125.162 150 125.147 150.007C125.129 150.019 125.109 150.028 125.088 150.037C124.97 150.102 124.859 150.157 124.747 150.211C124.718 150.228 124.697 150.237 124.677 150.246C124.662 150.254 124.646 150.259 124.629 150.267C124.57 150.293 124.529 150.309 124.486 150.326C124.42 150.354 124.351 150.38 124.283 150.404C124.24 150.419 124.196 150.435 124.153 150.45L124.131 150.457C124.112 150.465 124.094 150.47 124.075 150.476C124.047 150.485 124.018 150.493 123.988 150.502L123.927 150.519C123.886 150.53 123.846 150.543 123.805 150.552C123.735 150.57 123.662 150.585 123.592 150.602L123.557 150.609C123.523 150.617 123.488 150.624 123.453 150.632C123.373 150.646 123.294 150.657 123.214 150.669L123.179 150.674C123.151 150.678 123.123 150.683 123.097 150.685C122.972 150.7 122.853 150.709 122.736 150.713L60.2456 150.728ZM55.5234 145.807L57.6067 148.646C58.1882 149.439 59.1493 149.893 60.2456 149.893L122.725 149.889C122.809 149.885 122.909 149.876 123.009 149.865C123.025 149.863 123.042 149.861 123.057 149.857L123.107 149.85C123.173 149.841 123.24 149.832 123.307 149.819C123.333 149.813 123.357 149.807 123.383 149.802L123.423 149.793C123.483 149.78 123.544 149.767 123.603 149.752C123.636 149.743 123.67 149.733 123.701 149.724L123.777 149.702C123.796 149.696 123.812 149.693 123.831 149.687L123.897 149.663C123.933 149.652 123.97 149.637 124.007 149.624C124.064 149.604 124.123 149.582 124.181 149.557C124.218 149.543 124.253 149.528 124.288 149.513L124.353 149.485C124.37 149.476 124.386 149.469 124.403 149.459C124.499 149.415 124.592 149.367 124.685 149.315C124.701 149.306 124.718 149.298 124.735 149.289C124.751 149.28 124.762 149.272 124.775 149.265C124.986 149.143 125.188 149.004 125.375 148.854L125.422 148.817C125.436 148.804 125.451 148.791 125.466 148.778C125.527 148.728 125.586 148.676 125.644 148.622C125.655 148.611 125.666 148.602 125.679 148.593L125.701 148.57C125.714 148.557 125.727 148.544 125.74 148.532C125.796 148.478 125.847 148.424 125.899 148.369C125.912 148.356 125.923 148.343 125.936 148.33L125.951 148.315C125.968 148.294 125.977 148.282 125.988 148.269C126.044 148.204 126.097 148.139 126.151 148.072C126.162 148.057 126.175 148.043 126.188 148.028L126.203 148.009C126.203 148.007 126.21 147.996 126.22 147.985C126.299 147.88 126.373 147.77 126.44 147.661L126.457 147.637C126.503 147.563 126.546 147.487 126.586 147.409L126.596 147.389C126.633 147.317 126.67 147.244 126.703 147.17L126.725 147.12L145.068 105.18C145.105 105.093 145.14 105.006 145.17 104.92L145.197 104.839C145.218 104.78 145.236 104.72 145.253 104.663C145.26 104.635 145.268 104.607 145.275 104.578C145.292 104.513 145.305 104.459 145.316 104.404C145.323 104.372 145.329 104.341 145.335 104.309C145.346 104.254 145.353 104.198 145.36 104.143L145.372 104.057C145.379 103.989 145.384 103.922 145.388 103.854L145.39 103.82C145.394 103.733 145.394 103.652 145.392 103.572L145.388 103.504C145.384 103.448 145.381 103.393 145.375 103.337C145.373 103.313 145.37 103.291 145.366 103.269C145.357 103.204 145.349 103.156 145.342 103.106C145.34 103.094 145.338 103.08 145.336 103.065L145.325 103.017C145.316 102.974 145.305 102.93 145.294 102.885C145.285 102.852 145.279 102.828 145.272 102.802C145.259 102.756 145.244 102.709 145.227 102.665L145.214 102.622C145.21 102.613 145.207 102.604 145.203 102.594C145.168 102.498 145.125 102.4 145.072 102.294L145.049 102.25C145.005 102.167 144.957 102.083 144.903 102.002L144.885 101.972C144.864 101.941 144.842 101.909 144.818 101.878L142.738 99.0426C142.738 99.0611 142.736 99.0797 142.736 99.0963L142.733 99.1389C142.727 99.2315 142.722 99.3167 142.71 99.4019C142.707 99.4278 142.703 99.4556 142.699 99.4834L142.696 99.5074C142.686 99.5741 142.675 99.6426 142.664 99.7111C142.657 99.75 142.649 99.7889 142.64 99.8278C142.625 99.8945 142.61 99.9611 142.594 100.028C142.583 100.07 142.573 100.107 142.562 100.143C142.542 100.213 142.52 100.283 142.496 100.354L142.486 100.383C142.479 100.406 142.472 100.43 142.462 100.452C142.425 100.556 142.385 100.659 142.338 100.763L123.997 142.702C123.951 142.806 123.901 142.913 123.84 143.026L123.831 143.046C123.775 143.15 123.718 143.25 123.657 143.348C123.577 143.476 123.49 143.606 123.396 143.733C123.377 143.757 123.359 143.782 123.338 143.806L123.314 143.835C123.251 143.915 123.188 143.993 123.123 144.067C123.09 144.106 123.055 144.144 123.018 144.183C122.957 144.248 122.896 144.311 122.833 144.374C122.788 144.419 122.755 144.452 122.72 144.483C122.653 144.546 122.583 144.606 122.512 144.665L122.481 144.691C122.457 144.711 122.431 144.733 122.407 144.754C122.29 144.848 122.179 144.93 122.072 145.004C121.962 145.08 121.842 145.156 121.703 145.235C121.679 145.25 121.653 145.263 121.629 145.276L121.597 145.293C121.49 145.352 121.379 145.409 121.266 145.461L121.233 145.476C121.199 145.493 121.164 145.507 121.131 145.524C121.092 145.541 121.053 145.557 121.014 145.574C120.938 145.606 120.87 145.632 120.799 145.657C120.757 145.672 120.712 145.689 120.67 145.702C120.601 145.724 120.533 145.744 120.464 145.765L120.442 145.77C120.401 145.782 120.36 145.794 120.32 145.804C120.249 145.822 120.177 145.837 120.105 145.854L120.07 145.861C120.036 145.869 120.001 145.876 119.968 145.883C119.888 145.898 119.809 145.909 119.729 145.92L119.694 145.926C119.666 145.93 119.64 145.933 119.612 145.937C119.486 145.952 119.368 145.961 119.251 145.965L56.7549 145.969C56.3289 145.978 55.9141 145.919 55.5234 145.807Z" fill="#FAE6C3"/>
<path d="M142.462 74.0222L138.978 69.2722L135.986 88.0371L134.799 95.4704H138.699C138.814 95.4704 138.928 95.4741 139.038 95.4834L139.469 92.7852V92.7834L142.462 74.0222Z" fill="#FAE6C3"/>
<path d="M139.39 95.9334L139.005 95.9019C138.907 95.8945 138.803 95.8889 138.699 95.8889H134.311L138.724 68.2204L142.901 73.9148L139.911 92.6722L139.883 92.8537L139.39 95.9334ZM135.288 95.0556H138.686L139.059 92.7222L142.024 74.1297L139.233 70.3241L136.424 87.9352L136.398 88.1056L135.288 95.0556Z" fill="#FAE6C3"/>
<path d="M141.965 100.6L123.624 142.539C122.87 144.263 121.092 145.482 119.242 145.556L56.7627 145.559C54.8497 145.559 53.3757 144.319 53.1627 142.537L47.322 93.1667C47.0164 90.5797 49.4423 88.0389 52.2201 88.0389H74.9257C76.8386 88.0389 78.3164 89.2759 78.5275 91.0574L78.6923 92.4519C78.9035 94.2352 80.3775 95.4741 82.2923 95.4741H138.702C138.816 95.4741 138.931 95.4778 139.04 95.4871C141.609 95.6834 143.048 98.1204 141.965 100.6Z" fill="#FFA500"/>
<path d="M56.761 145.978C54.6351 145.978 52.9851 144.583 52.7481 142.589L46.9073 93.2148C46.7555 91.9278 47.2166 90.5704 48.1759 89.4926C49.2333 88.3037 50.7073 87.6204 52.2203 87.6204H74.9259C77.0536 87.6204 78.7055 89.013 78.9407 91.0074L79.1055 92.4018C79.2907 93.9648 80.5999 95.0555 82.2907 95.0555H138.7C138.828 95.0555 138.952 95.0611 139.074 95.0704C140.415 95.1741 141.556 95.85 142.202 96.9241C142.874 98.0407 142.926 99.4426 142.348 100.767L124.007 142.706C123.189 144.578 121.281 145.891 119.261 145.972L56.761 145.978ZM52.2203 88.4555C50.9629 88.4555 49.6851 89.05 48.7981 90.0463C47.9981 90.9463 47.611 92.0648 47.7351 93.1167L53.5759 142.491C53.761 144.054 55.0703 145.144 56.761 145.144L119.241 145.141C120.907 145.074 122.557 143.935 123.241 142.374L141.581 100.435C142.05 99.3611 142.015 98.2389 141.485 97.3555C140.98 96.5148 140.078 95.9852 139.007 95.9037C138.907 95.8963 138.804 95.8907 138.7 95.8907H82.2907C80.1647 95.8907 78.5148 94.4963 78.2777 92.5018L78.1129 91.1074C77.9277 89.5463 76.6166 88.4555 74.9259 88.4555H52.2203Z" fill="#FAE6C3"/>
<path d="M134.799 95.8889H82.2901C80.1642 95.8889 78.5142 94.4963 78.2753 92.5019L78.1123 91.1074C77.9272 89.5463 76.616 88.4556 74.9253 88.4556H59.9864C59.8642 88.4556 59.7494 88.4018 59.6698 88.3093C59.5901 88.2167 59.5568 88.0944 59.5753 87.9741L60.4068 82.7556C60.4383 82.5537 60.6142 82.4037 60.8179 82.4037H71.3401L74.5531 62.2555H64.1642C64.042 62.2555 63.9272 62.2018 63.8475 62.1093C63.7679 62.0167 63.7346 61.8944 63.7531 61.7741L65.6901 49.6241C65.7216 49.4222 65.8975 49.2722 66.1012 49.2722H121.799C121.92 49.2722 122.033 49.3241 122.112 49.4148L122.405 49.7481C122.486 49.8407 122.523 49.9667 122.503 50.0889L119.512 68.8556H138.977C139.099 68.8556 139.214 68.9093 139.294 69.0018C139.373 69.0944 139.407 69.2167 139.388 69.337L135.211 95.537C135.179 95.7407 135.005 95.8889 134.799 95.8889ZM60.4753 87.6222H74.9272C77.0531 87.6222 78.7049 89.0148 78.942 91.0093L79.1049 92.4037C79.2901 93.9648 80.6012 95.0555 82.292 95.0555H134.444L138.49 69.6889H119.025C118.903 69.6889 118.788 69.6352 118.709 69.5426C118.629 69.45 118.596 69.3278 118.614 69.2074L121.651 50.15L121.612 50.1056H66.4586L64.6531 61.4222H75.042C75.1642 61.4222 75.279 61.4759 75.3586 61.5685C75.4383 61.6611 75.4716 61.7833 75.4531 61.9037L72.1068 82.8852C72.0753 83.087 71.8994 83.237 71.6957 83.237H61.1735L60.4753 87.6222ZM114.766 90.6278H80.5142C80.1086 90.6278 79.7346 90.463 79.4883 90.1741C79.2457 89.8889 79.1457 89.5167 79.2068 89.1278C79.329 88.3593 80.0457 87.7574 80.8383 87.7574H115.09C115.494 87.7574 115.868 87.9222 116.112 88.2093C116.357 88.4944 116.457 88.8685 116.394 89.2593C116.272 90.0259 115.557 90.6278 114.766 90.6278ZM80.8383 88.5907C80.4586 88.5907 80.0883 88.8963 80.0309 89.2593C80.0068 89.4056 80.0401 89.5352 80.1235 89.6333C80.2123 89.737 80.3512 89.7944 80.5142 89.7944H114.766C115.146 89.7944 115.514 89.4889 115.572 89.1278C115.596 88.9815 115.562 88.8481 115.479 88.75C115.39 88.6463 115.253 88.5907 115.09 88.5907H80.8383ZM115.855 83.8018H81.6012C81.1957 83.8018 80.8235 83.637 80.5772 83.3481C80.3327 83.063 80.2327 82.6907 80.2957 82.3C80.4179 81.5333 81.1346 80.9315 81.9272 80.9315H116.179C116.585 80.9315 116.957 81.0963 117.203 81.3833C117.446 81.6685 117.546 82.0407 117.485 82.4315C117.36 83.2 116.646 83.8018 115.855 83.8018ZM81.9272 81.7648C81.5475 81.7648 81.1772 82.0704 81.1198 82.4315C81.0957 82.5796 81.129 82.7093 81.2123 82.8074C81.3012 82.9111 81.4401 82.9685 81.6031 82.9685H115.855C116.235 82.9685 116.603 82.663 116.66 82.3C116.685 82.1518 116.653 82.0222 116.568 81.9241C116.479 81.8204 116.342 81.7648 116.179 81.7648H81.9272ZM116.944 76.9722H82.692C82.2864 76.9722 81.9123 76.8074 81.666 76.5185C81.4235 76.2333 81.3235 75.8611 81.3846 75.4722C81.5068 74.7037 82.2235 74.1018 83.0161 74.1018H117.268C117.672 74.1018 118.046 74.2667 118.29 74.5537C118.535 74.8389 118.635 75.213 118.572 75.6037C118.449 76.3722 117.735 76.9722 116.944 76.9722ZM83.0161 74.9352C82.6364 74.9352 82.266 75.2407 82.2086 75.6037C82.1846 75.75 82.2179 75.8796 82.3012 75.9778C82.3901 76.0815 82.529 76.1389 82.692 76.1389H116.944C117.323 76.1389 117.692 75.8333 117.749 75.4722C117.773 75.3259 117.74 75.1926 117.657 75.0944C117.568 74.9907 117.431 74.9352 117.268 74.9352H83.0161Z" fill="#FAE6C3"/>
<path d="M53.0025 61.5018L49.5488 83.1574H71.9859L75.4396 61.5018H53.0025ZM72.2081 64.2129L69.6192 80.4444H52.7748L55.3636 64.2129H72.2081Z" fill="#DE9201"/>
<path d="M122.097 50.024L138.982 69.2722H119.026L122.097 50.024Z" fill="#DE9201"/>
<path d="M138.981 69.6889H119.025C118.903 69.6889 118.788 69.6352 118.709 69.5426C118.629 69.45 118.596 69.3278 118.614 69.2074L121.685 49.9592C121.711 49.8 121.825 49.6685 121.981 49.6241C122.137 49.5796 122.303 49.6278 122.411 49.75L139.296 68.9981C139.403 69.1203 139.429 69.2963 139.363 69.4444C139.292 69.5944 139.144 69.6889 138.981 69.6889ZM119.514 68.8555H138.061L122.366 50.9666L119.514 68.8555Z" fill="#FAE6C3"/>
<path d="M118.231 74.6055C117.998 74.3315 117.655 74.1815 117.27 74.1815H83.0164C82.2627 74.1815 81.5794 74.7537 81.4645 75.4852C81.4053 75.8518 81.4997 76.2 81.7275 76.4685C81.959 76.7389 82.3108 76.8944 82.6923 76.8944H116.944C117.698 76.8944 118.378 76.3222 118.494 75.5926C118.553 75.2241 118.459 74.8741 118.231 74.6055Z" fill="#FFA500"/>
<path d="M116.178 81.0111H81.9266C81.1729 81.0111 80.4914 81.5833 80.3747 82.313C80.3154 82.6796 80.4099 83.0296 80.6377 83.2963C80.8692 83.5667 81.2192 83.7222 81.6025 83.7222H115.854C116.608 83.7222 117.288 83.15 117.404 82.4185C117.464 82.0519 117.369 81.7019 117.141 81.4352C116.912 81.1648 116.56 81.0111 116.178 81.0111Z" fill="#FFA500"/>
<path d="M115.091 87.837H80.8387C80.085 87.837 79.4016 88.4093 79.2868 89.1407C79.2276 89.5074 79.322 89.8556 79.5498 90.1241C79.7813 90.3944 80.1331 90.55 80.5146 90.55H114.766C115.52 90.55 116.2 89.9778 116.316 89.2481C116.376 88.8815 116.281 88.5315 116.053 88.263C115.818 87.987 115.478 87.837 115.091 87.837Z" fill="#FFA500"/>
<path d="M153.757 72.2611L154.17 74.8407C154.418 76.387 155.479 77.5981 157.007 78.0759L159.557 78.8704L156.753 79.6648C155.076 80.1426 153.627 81.3519 152.885 82.9L151.65 85.4796L151.235 82.9C150.987 81.3537 149.926 80.1426 148.398 79.6648L145.85 78.8704L148.651 78.0759C150.329 77.5981 151.777 76.3889 152.52 74.8407L153.757 72.2611Z" fill="#FFA500"/>
<path d="M60.7934 46.7944L61.1101 48.7722C61.3008 49.9574 62.1138 50.887 63.286 51.2518L65.2416 51.8611L63.0916 52.4722C61.8045 52.837 60.6953 53.7648 60.1249 54.95L59.1768 56.9296L58.8601 54.95C58.6694 53.7648 57.8545 52.837 56.6842 52.4722L54.7305 51.8611L56.8786 51.2518C58.1657 50.887 59.2749 49.9574 59.8453 48.7722L60.7934 46.7944Z" fill="#FFA500"/>
<path d="M137.329 134.106L137.505 135.209C137.612 135.869 138.066 136.387 138.718 136.591L139.807 136.931L138.611 137.272C137.892 137.476 137.274 137.994 136.957 138.654L136.429 139.757L136.253 138.654C136.146 137.994 135.694 137.476 135.042 137.272L133.953 136.931L135.151 136.591C135.87 136.387 136.486 135.869 136.803 135.209L137.329 134.106Z" fill="#FFA500"/>
<path d="M46.1044 119.533L46.2804 120.635C46.3859 121.296 46.8396 121.813 47.4933 122.017L48.5822 122.357L47.3859 122.698C46.6674 122.902 46.0489 123.42 45.7322 124.081L45.2044 125.183L45.0285 124.081C44.9248 123.42 44.4693 122.904 43.8174 122.698L42.7285 122.357L43.9248 122.017C44.6433 121.815 45.2618 121.296 45.5767 120.635L46.1044 119.533Z" fill="#FFA500"/>
</svg>
