<svg width="21" height="20" viewBox="0 0 21 20" fill="none" xmlns="http://www.w3.org/2000/svg">
<path d="M4 14C3.44772 14 3 14.4477 3 15C3 15.5523 3.44772 16 4 16H12C12.5523 16 13 15.5523 13 15C13 14.4477 12.5523 14 12 14H4Z" fill="#344054"/>
<path d="M3 12C3 11.4477 3.44772 11 4 11H12C12.5523 11 13 11.4477 13 12C13 12.5523 12.5523 13 12 13H4C3.44772 13 3 12.5523 3 12Z" fill="#344054"/>
<path d="M11 8C10.4477 8 10 8.44771 10 9C10 9.55229 10.4477 10 11 10H12C12.5523 10 13 9.55229 13 9C13 8.44771 12.5523 8 12 8H11Z" fill="#344054"/>
<path d="M10 6C10 5.44772 10.4477 5 11 5H12C12.5523 5 13 5.44772 13 6C13 6.55228 12.5523 7 12 7H11C10.4477 7 10 6.55228 10 6Z" fill="#344054"/>
<path fill-rule="evenodd" clip-rule="evenodd" d="M5 4C3.89543 4 3 4.89543 3 6V8C3 9.10457 3.89543 10 5 10H7C8.10457 10 9 9.10457 9 8V6C9 4.89543 8.10457 4 7 4H5ZM5 6H7V8H5V6Z" fill="#344054"/>
<path fill-rule="evenodd" clip-rule="evenodd" d="M3 0C1.34315 0 0 1.34315 0 3V17C0 18.6569 1.34315 20 3 20H18C19.6569 20 21 18.6569 21 17V15C21 13.3431 19.6569 12 18 12H16V3C16 1.34315 14.6569 0 13 0H3ZM18 18H16V14H18C18.5523 14 19 14.4477 19 15V17C19 17.5523 18.5523 18 18 18ZM14 18H3C2.44772 18 2 17.5523 2 17V3C2 2.44772 2.44772 2 3 2H13C13.5523 2 14 2.44772 14 3V18Z" fill="#344054"/>
</svg>
